<?xml version="1.0" encoding="UTF-8" standalone="no"?>
<svg
   id="Layer_2"
   viewBox="0 0 92.670571 74.999999"
   version="1.1"
   sodipodi:docname="youtube.svg"
   width="92.67057"
   height="75"
   inkscape:version="1.1.1 (3bf5ae0d25, 2021-09-20)"
   xmlns:inkscape="http://www.inkscape.org/namespaces/inkscape"
   xmlns:sodipodi="http://sodipodi.sourceforge.net/DTD/sodipodi-0.dtd"
   xmlns="http://www.w3.org/2000/svg"
   xmlns:svg="http://www.w3.org/2000/svg">
  <sodipodi:namedview
     id="namedview26"
     pagecolor="#ffffff"
     bordercolor="#666666"
     borderopacity="1.0"
     inkscape:pageshadow="2"
     inkscape:pageopacity="0.0"
     inkscape:pagecheckerboard="0"
     showgrid="false"
     fit-margin-top="0"
     fit-margin-left="0"
     fit-margin-right="0"
     fit-margin-bottom="0"
     inkscape:zoom="4.9945907"
     inkscape:cx="11.011913"
     inkscape:cy="12.913971"
     inkscape:window-width="1920"
     inkscape:window-height="1017"
     inkscape:window-x="-8"
     inkscape:window-y="-8"
     inkscape:window-maximized="1"
     inkscape:current-layer="Layer_2" />
  <defs
     id="defs4">
    <style
       id="style2">.cls-1,.cls-2{fill:#191717;}.cls-2{fill-rule:evenodd;}</style>
    <clipPath
       id="clip0">
      <rect
         width="71"
         height="55"
         fill="#ffffff"
         id="rect847"
         x="0"
         y="0" />
    </clipPath>
  </defs>
  <g
     id="g918"
     transform="matrix(0.95659938,0,0,0.95659938,0,-8.835283)"
     style="display:inline;fill:#000000;fill-opacity:1">
    <g
       id="g864"
       style="fill:#000000;fill-opacity:1">
	<path
   d="M 95.201,25.538 C 94.015,20.386 89.801,16.585 84.728,16.018 72.715,14.677 60.556,14.67 48.453,14.677 36.348,14.67 24.187,14.677 12.174,16.018 7.104,16.585 2.893,20.386 1.707,25.538 0.019,32.875 0,40.884 0,48.438 0,55.992 0,64 1.688,71.336 c 1.184,5.151 5.396,8.952 10.469,9.52 12.012,1.342 24.172,1.349 36.277,1.342 12.107,0.007 24.264,0 36.275,-1.342 5.07,-0.567 9.285,-4.368 10.471,-9.52 1.689,-7.337 1.695,-15.345 1.695,-22.898 0,-7.554 0.014,-15.563 -1.674,-22.9 z M 35.936,63.474 c 0,-10.716 0,-21.32 0,-32.037 10.267,5.357 20.466,10.678 30.798,16.068 -10.3,5.342 -20.504,10.631 -30.798,15.969 z"
   id="path862"
   style="fill:#000000;fill-opacity:1" />

</g>
    <g
       id="g866"
       style="fill:#000000;fill-opacity:1">
</g>
    <g
       id="g868"
       style="fill:#000000;fill-opacity:1">
</g>
    <g
       id="g870"
       style="fill:#000000;fill-opacity:1">
</g>
    <g
       id="g872"
       style="fill:#000000;fill-opacity:1">
</g>
    <g
       id="g874"
       style="fill:#000000;fill-opacity:1">
</g>
    <g
       id="g876"
       style="fill:#000000;fill-opacity:1">
</g>
    <g
       id="g878"
       style="fill:#000000;fill-opacity:1">
</g>
    <g
       id="g880"
       style="fill:#000000;fill-opacity:1">
</g>
    <g
       id="g882"
       style="fill:#000000;fill-opacity:1">
</g>
    <g
       id="g884"
       style="fill:#000000;fill-opacity:1">
</g>
    <g
       id="g886"
       style="fill:#000000;fill-opacity:1">
</g>
    <g
       id="g888"
       style="fill:#000000;fill-opacity:1">
</g>
    <g
       id="g890"
       style="fill:#000000;fill-opacity:1">
</g>
    <g
       id="g892"
       style="fill:#000000;fill-opacity:1">
</g>
    <g
       id="g894"
       style="fill:#000000;fill-opacity:1">
</g>
  </g>
</svg>
